PathFileType	3	(X/Y/Z)	C:\Users\koon_\Desktop\
DataRate	CameraRate	NumFrames	NumMarkers	Units	OrigDataRate	OrigDataStartFrame	OrigNumFrames
100.0	100.0	14	27	mm	100.0	2244	3589	
Frame#	Time	get:LFHD			get:RFHD			get:LBHD			get:RBHD			get:C7			get:T10			get:CLAV			get:STRN			get:RBAK			get:LSHO			get:LUPA			get:LELB			get:LFRA			get:LWRA			get:LWRB			get:LFIN			get:RSHO			get:RUPA			get:RELB			get:RFRA			get:RWRA			get:RWRB			get:RFIN			get:LASI			get:RASI			get:LPSI			get:RPSI			
		X1	Y1	Z1	X2	Y2	Z2	X3	Y3	Z3	X4	Y4	Z4	X5	Y5	Z5	X6	Y6	Z6	X7	Y7	Z7	X8	Y8	Z8	X9	Y9	Z9	X10	Y10	Z10	X11	Y11	Z11	X12	Y12	Z12	X13	Y13	Z13	X14	Y14	Z14	X15	Y15	Z15	X16	Y16	Z16	X17	Y17	Z17	X18	Y18	Z18	X19	Y19	Z19	X20	Y20	Z20	X21	Y21	Z21	X22	Y22	Z22	X23	Y23	Z23	X24	Y24	Z24	X25	Y25	Z25	X26	Y26	Z26	X27	Y27	Z27	
2244	22.43	-318.5311	1361.0378	34.565548	-339.52332	1377.7288	-113.92667	-191.10344	1409.8358	16.60111	-217.33566	1419.3021	-133.57327	-102.68704	1260.6941	-109.93442	30.479099	1107.3618	-165.96091	-218.0826	1088.2372	-65.321938	-166.41013	941.2196	-93.93615	-90.005302	1218.2922	-222.51381	-115.09103	1216.3925	59.049717	-121.22303	1011.7023	111.01313	-62.309105	895.05664	123.82656	-155.39476	882.76422	130.91133	-292.24878	787.78833	81.276917	-257.82724	744.03467	131.69142	-334.60425	726.63391	135.36975	-239.15732	1223.4647	-199.54756	-263.57184	1116.9053	-279.8765	-206.65231	907.84918	-348.505	-332.81796	841.94983	-274.19421	-395.64673	782.69604	-232.87332	-363.90656	744.90912	-286.07898	-446.1217	739.85791	-270.19525	38.076641	831.64972	-27.513224	-103.17998	857.83453	-280.74033	149.92932	899.59613	-191.8441	111.70847	897.099	-272.91461
2245	22.44	-319.1438	1352.1909	35.891258	-340.66968	1368.7632	-113.06711	-191.89333	1400.9135	16.855268	-218.47697	1410.3721	-133.31218	-103.89807	1253.1475	-109.59129	30.903261	1102.0392	-166.48175	-218.41954	1078.6741	-65.419312	-163.76036	932.90521	-95.515923	-91.519836	1211.4927	-222.38118	-116.38467	1207.7118	59.047523	-124.10695	1003.9439	111.10822	-66.359306	886.95233	125.89664	-159.85619	873.98883	131.93867	-295.54111	777.44196	83.220665	-260.98132	734.40857	134.05533	-337.60455	716.49823	137.70238	-240.48218	1214.6479	-198.5854	-265.77591	1108.5884	-278.41144	-210.60175	899.18488	-347.11826	-336.25983	831.85822	-273.51886	-398.4101	771.88397	-233.54115	-366.82751	734.73883	-286.7327	-448.85196	729.82385	-271.34323	41.529842	826.38055	-29.825089	-100.05922	852.3327	-282.87039	153.4248	894.17523	-194.11752	115.03081	891.60919	-275.27353
2246	22.45	-319.85907	1342.8137	36.648418	-341.73001	1359.436	-112.6184	-192.59714	1391.5162	17.164551	-219.6703	1400.9493	-133.02293	-105.08896	1245.0385	-109.24986	31.473972	1096.1891	-167.19391	-218.71658	1068.3789	-65.575043	-160.83838	924.10547	-96.969826	-93.04332	1204.1691	-222.24199	-117.64347	1198.4058	59.176155	-126.96063	995.61951	111.17306	-70.499504	878.21283	127.88688	-164.51241	864.61151	132.77237	-298.93317	766.72302	85.154884	-264.2854	724.28381	136.40381	-340.82309	705.95642	140.17685	-241.69525	1205.1564	-197.65601	-267.84302	1099.5854	-276.90402	-214.39809	890.03217	-345.96613	-339.67542	821.41797	-273.05624	-401.74994	761.08191	-233.65707	-369.78717	724.28345	-287.35477	-451.6976	719.58521	-272.54565	45.070484	820.47375	-31.832956	-96.945229	846.44141	-285.01288	156.83395	888.3501	-196.319	118.32175	885.87256	-277.51398
2247	22.46	-320.58078	1332.8778	37.297905	-342.89554	1349.4232	-111.63174	-193.34116	1381.5227	17.383123	-220.79503	1391.0356	-132.6109	-106.19772	1236.4214	-108.99784	32.051224	1089.8447	-167.83282	-218.86266	1057.5223	-65.71096	-158.84868	915.58167	-99.860062	-94.492973	1196.2158	-222.1059	-118.76916	1188.6019	59.131748	-129.65364	986.8396	111.24207	-75.254662	868.66443	129.30725	-169.07115	854.85638	134.20001	-302.48926	755.57819	87.063354	-267.76791	713.72552	138.62178	-344.17401	695.05713	142.49321	-242.78888	1195.0811	-196.67506	-269.92551	1090.1288	-275.58292	-218.02489	880.16052	-344.67142	-343.26254	810.58777	-272.17023	-404.88586	749.86975	-234.12184	-372.87561	713.54639	-287.89609	-454.77646	708.94788	-273.62021	48.569813	813.86694	-33.813271	-93.920929	840.05164	-287.23007	160.23132	882.1781	-198.41116	121.59389	879.88977	-279.69043
2248	22.47	-321.23166	1322.381	37.833706	-343.89639	1338.9862	-111.0598	-194.03276	1371.1404	17.713816	-221.89763	1380.6685	-132.22604	-107.20731	1227.2772	-108.61115	32.596138	1082.936	-168.33571	-218.75296	1046.1499	-65.894836	-156.81436	906.57526	-102.77634	-95.838326	1187.7445	-221.99048	-119.82425	1178.3503	59.183002	-132.29425	977.65289	111.40057	-79.689293	858.97186	131.06381	-173.7847	844.7149	135.56993	-306.12015	744.10034	88.760399	-271.38824	702.83087	140.80852	-347.50385	683.83405	144.66457	-243.61082	1184.5334	-195.47647	-272.11697	1080.0305	-273.98166	-221.60037	869.90961	-343.46695	-346.79388	799.70612	-272.10333	-408.44452	738.62042	-234.29723	-376.08868	702.50189	-288.17523	-457.94055	697.90582	-274.48914	52.012814	806.69043	-35.887718	-90.834	833.29883	-289.18835	163.49504	875.76727	-200.32422	124.8301	873.65967	-281.73526
2249	22.48	-321.78589	1311.4464	38.419468	-344.9931	1328.2338	-110.28587	-194.6904	1360.3217	17.980257	-222.97913	1369.9437	-131.88574	-108.14766	1217.6772	-108.26639	33.243256	1075.6262	-168.78529	-218.48402	1034.4995	-66.049706	-154.69528	897.24554	-105.53718	-97.087769	1178.7336	-221.84767	-120.83564	1167.6096	59.164703	-134.61226	968.32025	111.21834	-84.134438	848.94409	132.99181	-178.5276	834.19598	137.09871	-309.86731	732.29828	90.387939	-275.14459	691.59222	143.03569	-351.15997	672.40289	146.88954	-244.37257	1173.5852	-194.55331	-273.89816	1069.6182	-272.74533	-225.08449	859.26935	-342.54907	-350.4115	788.50897	-271.84995	-412.1189	727.2002	-234.45229	-379.39862	691.27179	-288.38965	-461.34515	686.59198	-275.37201	55.321644	798.99933	-37.969818	-87.787048	826.26233	-291.21512	166.722	869.00848	-202.08788	128.05667	867.18188	-283.66916
2250	22.49	-322.36584	1300.131	39.106541	-345.89554	1316.9763	-109.5461	-195.37172	1349.1896	18.37361	-224.00833	1358.8254	-131.44751	-108.94987	1207.6495	-107.84618	33.926094	1067.8837	-169.21341	-217.91943	1022.5009	-66.180557	-151.93346	886.49579	-106.84382	-98.195908	1169.2947	-221.63895	-121.73508	1156.5345	59.164917	-137.33212	958.67517	111.00164	-88.737709	838.6181	134.93044	-183.43396	823.4231	138.57468	-313.75125	720.20306	92.267914	-279.06244	680.12219	145.17261	-354.92035	660.64325	148.87946	-244.96245	1162.3163	-193.53979	-275.48004	1058.9102	-271.66522	-228.58041	848.14478	-341.29739	-354.06491	777.01465	-271.41306	-415.72842	715.52252	-234.4106	-382.90771	679.74316	-288.43988	-464.86243	675.06329	-275.85413	58.589275	790.71582	-39.950821	-84.754265	819.03522	-293.17264	169.94688	861.98499	-203.87035	131.32698	860.4541	-285.465
2251	22.5	-323.02695	1288.5459	38.868397	-346.73465	1305.345	-108.92336	-196.03809	1337.7452	18.661152	-224.99826	1347.3551	-131.00447	-109.80826	1197.2813	-107.34306	34.673088	1059.8182	-169.45673	-216.97154	1010.2091	-66.689987	-148.94131	875.43835	-108.43172	-99.185478	1159.4867	-221.39893	-122.57735	1145.0328	59.431313	-139.66287	948.58557	111.51771	-93.405556	827.88965	136.79993	-188.54155	812.31494	139.80038	-317.74487	707.78619	93.703934	-283.13733	668.2262	147.25296	-358.87946	648.57922	150.87756	-245.56058	1150.7838	-192.52025	-276.88657	1047.7804	-270.59534	-232.08676	836.78162	-340.27829	-357.75433	765.28412	-270.85489	-419.46393	703.79333	-234.42804	-386.43765	668.15765	-288.53873	-468.48373	663.52032	-276.1145	61.808872	782.06549	-42.092587	-81.764061	811.66071	-295.13608	173.22218	854.61615	-205.38951	134.60016	853.38977	-287.21918
2252	22.51	-323.55948	1276.6964	39.567871	-347.48428	1293.5122	-108.4331	-196.66032	1325.9673	19.089518	-225.92653	1335.5785	-130.58633	-110.58855	1186.7056	-106.70697	35.472118	1051.4532	-169.56424	-215.78647	997.69226	-67.395805	-146.07823	864.0321	-109.91383	-100.00588	1149.4795	-221.08351	-123.41677	1133.2894	59.600796	-142.16901	938.22809	112.05417	-98.241341	816.94989	138.51762	-193.8131	801.05139	140.8936	-321.84003	694.97327	94.915894	-287.36282	656.26965	149.35321	-362.95074	636.26434	152.69781	-246.19054	1139.0188	-191.9451	-278.14972	1036.4612	-269.42792	-235.60562	825.17914	-339.15601	-361.52451	753.49359	-270.147	-423.15457	691.90155	-234.25948	-390.19745	656.42432	-288.45294	-472.16202	652.0202	-276.10672	64.882774	773.06805	-43.933487	-78.799515	804.02893	-296.75235	176.47615	846.99481	-206.80913	137.91479	846.15497	-288.8063
2253	22.52	-323.9313	1264.5624	40.84605	-348.31836	1281.2733	-107.54074	-197.23534	1313.9446	19.5014	-226.76999	1323.5723	-130.03348	-111.35506	1175.9102	-106.03545	36.240868	1042.7736	-169.49025	-214.40337	984.95435	-68.136429	-145.36731	852.8913	-111.24444	-100.71206	1139.3025	-220.63889	-124.34206	1121.351	59.946548	-144.78285	927.53082	112.93346	-103.2045	805.84503	140.20518	-199.22418	789.5672	141.76289	-326.00467	682.10541	96.424423	-291.63452	644.11615	151.28764	-367.16019	623.67322	154.6235	-246.5368	1127.0695	-190.90527	-279.24014	1025.0112	-268.23099	-239.1301	813.42786	-337.97351	-365.26389	741.5307	-269.25018	-426.83664	679.87775	-233.68623	-394.0351	644.55524	-288.07498	-476.06769	640.63281	-275.99271	67.661034	763.79828	-45.86705	-75.686951	796.91138	-298.95627	179.7514	839.11993	-208.11223	141.19156	838.70111	-290.23145
2254	22.53	-324.48581	1252.3916	40.886425	-348.966	1269.0396	-106.85674	-197.68846	1301.7268	20.06431	-227.55391	1311.2927	-129.49059	-112.10078	1164.8994	-105.17086	36.969765	1033.9835	-169.19481	-212.74493	972.23352	-68.585876	-141.90273	841.31726	-112.3522	-101.32795	1128.9606	-220.05942	-125.34177	1109.1157	60.23814	-147.5378	916.78687	113.64552	-108.29552	794.62299	141.68111	-204.61781	778.0694	142.5658	-329.86771	668.8493	96.852394	-296.00873	631.96472	153.24179	-371.32153	610.91498	156.29092	-246.84267	1114.9988	-190.05171	-280.12384	1013.4642	-267.03491	-242.64159	801.95941	-337.32159	-368.99286	729.47253	-267.99695	-430.50458	667.83777	-232.91922	-397.98413	632.85028	-287.85428	-479.94312	629.24158	-275.49915	71.574989	754.49622	-47.751556	-72.660591	789.23102	-300.5	182.99654	831.03601	-209.24854	144.45551	831.02521	-291.58301
2255	22.54	-324.9166	1239.9387	41.83416	-349.58096	1256.567	-106.06862	-198.11301	1289.2972	20.511488	-228.26762	1298.8403	-128.86868	-112.85355	1153.8113	-104.20518	37.712933	1025.166	-168.76022	-210.99573	959.60291	-69.199486	-138.43721	829.79407	-113.61118	-102.00129	1118.5555	-219.46463	-126.53065	1096.6508	60.605263	-150.32227	906.06561	114.49384	-113.20004	783.25183	142.92479	-209.92738	766.44244	143.07083	-334.11386	655.90277	98.338333	-300.27347	619.71075	154.94038	-375.37241	598.16406	157.95767	-247.26396	1102.7933	-189.30203	-280.92606	1001.8552	-265.79465	-246.13812	790.10596	-335.9101	-372.71536	717.4837	-266.77664	-434.20648	655.82538	-232.13396	-401.95651	620.9751	-287.23016	-483.38486	617.8371	-274.99368	74.518883	745.03296	-49.517723	-69.651115	781.44757	-302.02786	186.1839	822.79016	-210.39732	147.65802	823.16803	-292.84564
2256	22.55	-325.31448	1227.3864	42.564667	-350.24149	1243.9387	-105.23902	-198.55038	1276.7136	21.033125	-228.97687	1286.3665	-128.27528	-113.61991	1142.6215	-103.22659	38.491131	1016.273	-168.08842	-209.4886	946.85162	-70.09713	-135.10858	818.23553	-115.1236	-102.56718	1108.1239	-218.73318	-127.83199	1083.9971	60.934097	-153.33611	895.29803	114.6817	-117.91193	771.7597	144.09222	-215.0807	754.81372	143.56125	-338.67151	643.3335	100.04385	-303.62717	607.25458	156.40164	-379.63663	585.46735	159.54132	-247.63199	1090.5759	-188.41617	-281.60733	990.18628	-264.62643	-249.6346	778.68884	-334.94125	-376.38071	705.49268	-265.34988	-437.92865	643.87238	-231.11815	-405.98828	609.22876	-286.65366	-487.68124	606.58899	-274.14465	77.336853	735.49286	-51.060261	-66.68026	773.60608	-303.55661	189.34129	814.40521	-211.41043	150.94434	815.16968	-294.09479
2257	22.56	-325.6713	1214.759	43.213551	-350.80716	1231.2593	-104.37531	-198.93898	1264.1472	21.658136	-229.56055	1273.7556	-127.65762	-114.32282	1131.4014	-102.03918	39.246742	1007.4069	-167.25941	-208.20911	933.98828	-71.124107	-131.94875	806.71533	-116.94449	-103.06777	1097.6947	-217.73291	-129.26241	1071.1246	61.198875	-156.60214	884.11621	114.94317	-122.39722	760.00879	145.15564	-220.01981	743.05792	143.94728	-342.79489	630.62091	100.96047	-307.94843	594.96936	157.87343	-383.88107	572.97809	160.95517	-247.84819	1078.5283	-187.5994	-282.27933	978.62616	-263.44388	-253.02982	766.42535	-332.58258	-380.11246	693.6272	-263.96814	-441.67438	631.94965	-230.22372	-410.00214	597.58844	-285.9173	-491.60434	595.32764	-273.39255	79.996948	726.1076	-52.81506	-63.783428	765.68829	-304.883	192.38681	806.02679	-212.47682	154.10353	807.04303	-295.23486
